<?xml version="1.0" encoding="UTF-8" standalone="no"?>
<!DOCTYPE svg PUBLIC "-//W3C//DTD SVG 1.1//EN"
 "http://www.w3.org/Graphics/SVG/1.1/DTD/svg11.dtd">
<!-- Generated by graphviz version 2.40.1 (20161225.0304)
 -->
<!-- Title: list Pages: 1 -->
<svg width="371pt" height="100pt"
 viewBox="0.00 0.00 371.00 100.00" xmlns="http://www.w3.org/2000/svg" xmlns:xlink="http://www.w3.org/1999/xlink">
<g id="graph0" class="graph" transform="scale(1 1) rotate(0) translate(4 96.0015)">
<title>list</title>
<polygon fill="#ffffff" stroke="transparent" points="-4,4 -4,-96.0015 367,-96.0015 367,4 -4,4"/>
<text text-anchor="middle" x="181.5" y="-7" font-family="Times,serif" font-size="10.00" fill="#000000">WalkCycleMachine</text>
<!-- i -->
<g id="node1" class="node">
<title>i</title>
<ellipse fill="#000000" stroke="#000000" cx="7" cy="-46.0015" rx="7" ry="7"/>
<text text-anchor="middle" x="7" y="-45.7015" font-family="Times,serif" font-size="1.00" fill="#000000">i</text>
</g>
<!-- rest -->
<g id="node2" class="node">
<title>rest</title>
<path fill="#40e0d0" stroke="#000000" stroke-width="2" d="M142,-64.0015C142,-64.0015 63,-64.0015 63,-64.0015 57,-64.0015 51,-58.0015 51,-52.0015 51,-52.0015 51,-40.0015 51,-40.0015 51,-34.0015 57,-28.0015 63,-28.0015 63,-28.0015 142,-28.0015 142,-28.0015 148,-28.0015 154,-34.0015 154,-40.0015 154,-40.0015 154,-52.0015 154,-52.0015 154,-58.0015 148,-64.0015 142,-64.0015"/>
<text text-anchor="middle" x="102.5" y="-49.0015" font-family="Times,serif" font-size="10.00" fill="#000000">rest</text>
<text text-anchor="middle" x="102.5" y="-38.0015" font-family="Times,serif" font-size="10.00" fill="#000000">entry / deactivate_all</text>
</g>
<!-- i&#45;&gt;rest -->
<g id="edge1" class="edge">
<title>i&#45;&gt;rest</title>
<path fill="none" stroke="#0000ff" d="M14.178,-46.0015C20.4218,-46.0015 30.1353,-46.0015 40.8742,-46.0015"/>
<polygon fill="#0000ff" stroke="#0000ff" points="40.9546,-49.5016 50.9546,-46.0015 40.9546,-42.5016 40.9546,-49.5016"/>
</g>
<!-- rest&#45;&gt;rest -->
<g id="edge3" class="edge">
<title>rest&#45;&gt;rest</title>
<path fill="none" stroke="#0000ff" d="M89.8364,-64.1542C87.8882,-73.5406 92.1094,-82.0015 102.5,-82.0015 108.8318,-82.0015 112.8726,-78.8597 114.6225,-74.2811"/>
<polygon fill="#0000ff" stroke="#0000ff" points="118.125,-74.3268 115.1636,-64.1542 111.135,-73.9532 118.125,-74.3268"/>
<text text-anchor="middle" x="102.5" y="-84.8015" font-family="Times,serif" font-size="9.00" fill="#000000">walk</text>
</g>
<!-- stepping -->
<g id="node3" class="node">
<title>stepping</title>
<path fill="#ffffff" stroke="#000000" d="M351,-64.0015C351,-64.0015 258,-64.0015 258,-64.0015 252,-64.0015 246,-58.0015 246,-52.0015 246,-52.0015 246,-40.0015 246,-40.0015 246,-34.0015 252,-28.0015 258,-28.0015 258,-28.0015 351,-28.0015 351,-28.0015 357,-28.0015 363,-34.0015 363,-40.0015 363,-40.0015 363,-52.0015 363,-52.0015 363,-58.0015 357,-64.0015 351,-64.0015"/>
<text text-anchor="middle" x="304.5" y="-49.0015" font-family="Times,serif" font-size="10.00" fill="#000000">stepping</text>
<text text-anchor="middle" x="304.5" y="-38.0015" font-family="Times,serif" font-size="10.00" fill="#000000">entry / find_is_swinging</text>
</g>
<!-- rest&#45;&gt;stepping -->
<g id="edge2" class="edge">
<title>rest&#45;&gt;stepping</title>
<path fill="none" stroke="#0000ff" d="M154.2577,-46.0015C179.0306,-46.0015 209.0363,-46.0015 235.6986,-46.0015"/>
<polygon fill="#0000ff" stroke="#0000ff" points="235.7356,-49.5016 245.7356,-46.0015 235.7356,-42.5016 235.7356,-49.5016"/>
<text text-anchor="middle" x="200" y="-58.8015" font-family="Times,serif" font-size="9.00" fill="#000000">walk</text>
<text text-anchor="middle" x="200" y="-48.8015" font-family="Times,serif" font-size="9.00" fill="#000000">[should_adjust]</text>
</g>
<!-- stepping&#45;&gt;rest -->
<g id="edge4" class="edge">
<title>stepping&#45;&gt;rest</title>
<path fill="none" stroke="#0000ff" d="M254.399,-27.9107C245.703,-25.4571 236.6682,-23.3293 228,-22.0015 203.3981,-18.233 196.5457,-17.8828 172,-22.0015 167.2909,-22.7917 162.4741,-23.8634 157.6816,-25.1174"/>
<polygon fill="#0000ff" stroke="#0000ff" points="156.5689,-21.7954 147.9208,-27.9159 158.4982,-28.5243 156.5689,-21.7954"/>
<text text-anchor="middle" x="200" y="-34.8015" font-family="Times,serif" font-size="9.00" fill="#000000">walk</text>
<text text-anchor="middle" x="200" y="-24.8015" font-family="Times,serif" font-size="9.00" fill="#000000">[step_finished]</text>
</g>
<!-- stepping&#45;&gt;stepping -->
<g id="edge5" class="edge">
<title>stepping&#45;&gt;stepping</title>
<path fill="none" stroke="#0000ff" d="M285.6855,-64.1542C282.791,-73.5406 289.0625,-82.0015 304.5,-82.0015 313.9072,-82.0015 319.9108,-78.8597 322.5106,-74.2811"/>
<polygon fill="#0000ff" stroke="#0000ff" points="326.0121,-74.3999 323.3145,-64.1542 319.0341,-73.8459 326.0121,-74.3999"/>
<text text-anchor="middle" x="304.5" y="-84.8015" font-family="Times,serif" font-size="9.00" fill="#000000">walk</text>
</g>
</g>
</svg>
